<?xml version="1.0" encoding="UTF-8"?>
<svg id="Capa_2" data-name="Capa 2" xmlns="http://www.w3.org/2000/svg" viewBox="0 0 132 129.09">
  <defs>
    <style>
      .cls-1 {
        fill: #010101;
        stroke-width: 0px;
      }
    </style>
  </defs>
  <path class="cls-1" d="M52.58,29.93c-1.82.28-3.69,1.66-5.57,4.21-2.2,2.99-3.64,3.64-4.27,1.98-1.42-3.71-8.11-2.99-9.23.99-2.73,9.68-3.22,16.09-1.61,20.44,1.12,3.02,1.03,6-.25,8.05-3.05,4.89,1.25,13.48,13.32,26.44,9.28,9.98,11.02,11.03,15.98,9.79,3.06-.77,8.33-1.48,11.7-1.61,5.86-.23,16.63-4.95,22.3-9.79,11.29-9.62,14.99-14.27,15.92-20,1.16-7.15-2.01-14.99-6.07-14.99-1.43,0-4.22-1.78-6.19-3.96s-4.56-3.96-5.82-3.96-4.08-1.59-6.19-3.53c-5.83-5.36-18.56-10.81-22.73-9.72-2.04.53-4.74-.27-6.01-1.8-1.66-2-3.44-2.82-5.26-2.54h0Z"/>
</svg>