<?xml version="1.0" encoding="UTF-8"?>
<svg id="Capa_5" data-name="Capa 5" xmlns="http://www.w3.org/2000/svg" viewBox="0 0 132 129.09">
  <defs>
    <style>
      .cls-1 {
        fill: #010101;
        stroke-width: 0px;
      }
    </style>
  </defs>
  <path class="cls-1" d="M96.34,15.77c-2.26-.34-5.07,1.82-5.07,5.64,0,5.01-2.31,6.15-8.19,3.99-8.43-3.09-8.89-3.13-14.34-1.76-4.6,1.16-5.76,1.03-8.91-.83-2.86-1.69-5.26-2.01-11.39-1.62-4.27.27-7.76.68-7.76.93s.61,1.46,1.37,2.66c1.06,1.7,1.05,3.31-.11,7.19-2.33,7.82-3.41,10.14-4.67,10.14-.65,0-1.19.78-1.19,1.73s-.48,1.73-1.08,1.73-2.79,1.6-4.89,3.56-5.16,4.06-6.83,4.67c-2.44.89-3.18,2.1-3.77,6.04-.41,2.71-.24,6.28.4,7.94.73,1.93.74,3.27.04,3.7-1.99,1.23-1.15,4.18,2.7,9.6,2.08,2.93,4.51,6.84,5.43,8.66.92,1.82,3.49,4.64,5.71,6.25s6.61,4.85,9.78,7.19c3.88,2.86,7.59,4.49,11.36,5.03,3.07.44,7.21,1.74,9.2,2.91s3.89,2.18,4.24,2.23c.35.04,2.16-1.98,4.03-4.49,3.34-4.5,5.15-5.54,20.06-11.5,6.83-2.73,7.48-3.26,7.48-6.36,0-2.23.65-3.53,1.9-3.77,3.21-.63,5.07-6.72,3.41-11.29-1.49-4.13-.98-6.22,1.55-6.22,2.34,0,3.08-3.26,1.01-4.42-1.82-1.02-1.75-3.96.22-10.17.58-1.84.04-3.27-1.98-5.28-1.52-1.52-3.47-2.99-4.31-3.27-1.03-.34-1.7-3.44-2.08-9.42-.47-7.32-.98-9.14-2.84-10.14-2.22-1.19-2.22-1.24.22-2.95,1.7-1.19,2.36-2.7,2.12-4.78-.26-2.22-1.41-3.32-2.77-3.52h0Z"/>
</svg>