<?xml version="1.0" encoding="UTF-8"?>
<svg id="Capa_3" data-name="Capa 3" xmlns="http://www.w3.org/2000/svg" viewBox="0 0 132 129.09">
  <defs>
    <style>
      .cls-1 {
        fill: #010101;
        stroke-width: 0px;
      }
    </style>
  </defs>
  <path class="cls-1" d="M54.05,10.19c-1.37-.11-2.22.79-2.72,2.72-.42,1.6-1.82,2.91-3.13,2.91s-4.37,1.03-6.76,2.27c-3.42,1.77-4.15,2.9-3.4,5.27.71,2.24-.09,3.87-3.18,6.35l-4.18,3.36,6.26,12.44c3.45,6.84,5.92,12.97,5.49,13.66-.43.69,1.49,5.06,4.27,9.67,2.77,4.6,5.04,9.76,5.04,11.48,0,2.95,2.92,8.17,6.67,12.03.92.95,2.1,4.99,2.63,8.99,1.03,7.76,3.83,14.41,6.94,16.39,3.45,2.19,5.54,1.31,5.54-2.32,0-4.18,2.88-10.98,4.63-10.98.67,0,1.18-.81,1.18-1.82s2.24-5.11,4.95-9.12c6.04-8.97,8.97-21.42,6.85-29.1-1.13-4.1-.99-6.3.59-9.35,2.98-5.77,6.34-15.96,5.27-15.98-1.31-.02-5.74-9.72-7.94-17.43-1.81-6.33-2.02-6.52-7.58-6.49-3.15.02-8.36.48-11.58,1.04-4.98.87-6.47.52-10.03-2.54-2.53-2.18-4.44-3.34-5.81-3.45h0Z"/>
</svg>