<?xml version="1.0" encoding="UTF-8"?>
<svg id="Capa_4" data-name="Capa 4" xmlns="http://www.w3.org/2000/svg" viewBox="0 0 132 129.09">
  <defs>
    <style>
      .cls-1 {
        fill: #010101;
        stroke-width: 0px;
      }
    </style>
  </defs>
  <path class="cls-1" d="M85.24,26.29c-2.21.57-4.06,1.8-6.64,3.97-3.31,2.79-6.12,6.06-6.27,7.26-.15,1.2-.37,3.71-.5,5.53-.13,1.82-4.66,6.55-10.12,10.55-10.6,7.78-15.8,8.13-28.18,1.8-4.98-2.54-5.63-2.35-10.43,3.35-6.27,7.46-6.38,11.17-.62,18.25,3.38,4.15,7.27,5.95,16.2,7.57,6.47,1.18,13.85,1.73,16.39,1.24s4.59-.15,4.59.74,3.35,5.21,7.45,9.56,8.66,7.49,10.12,7.02c1.46-.47,3.01-.87,3.41-.87s1.3-3.35,1.99-7.45c2.28-13.57,4.96-19.75,9.44-21.79,2.93-1.34,5.2-5.08,6.83-11.17,1.35-5.06,4.27-11.03,6.46-13.22,8.97-8.97,3.07-20.74-11.24-22.35-4.06-.46-6.67-.57-8.88,0h0Z"/>
</svg>