<?xml version="1.0" encoding="UTF-8"?>
<svg xmlns="http://www.w3.org/2000/svg" version="1.1" viewBox="0 0 132 129.1">
  <defs>
    <style>
      .cls-1 {
        fill: #010101;
      }
    </style>
  </defs>
  <!-- Generator: Adobe Illustrator 28.6.0, SVG Export Plug-In . SVG Version: 1.2.0 Build 709)  -->
  <g>
    <g id="Capa_6">
      <path class="cls-1" d="M104.6,0c-2.8,0-5.8.6-8.3,1.9-1.9,1-4.2,1.8-5.2,1.9s-2.1.6-2.5,1.2-1.4,1.2-2.3,1.6c-1.4.5-1.6,1.2-.7,4.3.8,3,.7,4.5-.7,7.5-1.1,2.3-1.5,4.8-1.1,6.4.8,3.2-4.2,14.4-7.3,16.3-1.3.8-2.1,2.3-2.1,4.1s-1.1,3.8-3,5.7c-1.7,1.6-3,3.5-3,4.2s-.8,1.3-1.8,1.3c-1.5,0-2.1,1.2-3,5.9-.6,3.2-.9,6.5-.6,7.3.3.9-1.1,3.3-3.4,5.9-3.9,4.2-4,4.6-4,11.4,0,11.9.1,11.7-5.2,14.4-1.5.8-3.9,3.1-5.5,5.2-1.8,2.3-5.2,5-8.9,6.8-9.3,4.6-10.8,5-18.9,5.8-6.3.6-7.6,1-7.6,2.5s-.3,2.5-.6,3.4c-.5,1.4-.1,1.6,2.8,1.1,1.9-.3,7.6.3,12.9,1.3,12.4,2.5,12.5,2.5,14.4-.4.9-1.4,2.3-2.5,3.2-2.5s1.9-1.1,2.5-2.5c.5-1.4,2-2.9,3.3-3.4,1.3-.5,3.1-2.4,4-4.2,2.7-5.5,4-6.5,8.7-7.3,2.5-.4,6.7-1.9,9.4-3.2,3.4-1.7,7.2-2.7,12.5-3,5.2-.4,8.2-1.1,9.6-2.2,1.1-.9,3.6-2.3,5.5-2.9,3.9-1.3,10-7.5,10-10.1s1-4.4,2.1-7.6,2.2-6.8,2.4-7.9c.2-1.1.8-3.3,1.4-4.8,1.2-3.2,1.4-7.7.3-7.7-.4,0-.8-2.6-.9-5.7-.1-4.1.3-6,1.3-6.8,2.3-1.7,5.2-11.3,5.3-17.1,0-2.8-.6-6.4-1.5-8.1-.8-1.6-1.8-5.8-2.1-9.2-.6-5.4-1-6.5-3.8-8.4-1.9-1.4-4.6-2-7.4-2.1h0Z"/>
    </g>
  </g>
</svg>