<?xml version="1.0" encoding="UTF-8"?>
<svg id="Capa_7" data-name="Capa 7" xmlns="http://www.w3.org/2000/svg" viewBox="0 0 132 129.09">
  <defs>
    <style>
      .cls-1 {
        fill: #010101;
        stroke-width: 0px;
      }
    </style>
  </defs>
  <path class="cls-1" d="M103.98,13.44c-1.31.08-2.66.39-3.99.94-4.3,1.78-5.68,4.16-8.62,15.06-2.04,7.56-6.2,11.37-9.91,9.05-4.28-2.68-11.49-.54-20.51,6.09-4.49,3.31-9.08,6.01-10.17,6.01s-2.36.65-2.83,1.42c-.51.82-1.72.91-2.96.21-1.52-.85-3.76.42-8.15,4.63-3.33,3.19-6.05,6.19-6.05,6.69s-1.54,2.55-3.43,4.59c-3,3.24-3.43,4.96-3.43,13.64,0,9.11-.33,10.3-4.2,14.71-5.4,6.15-5.14,11.66.6,13.56,2.98.99,4.4.79,6.01-.82,1.65-1.65,2.81-1.8,5.36-.64,1.79.81,3.22,1.98,3.22,2.62,0,2.13,1.55,1.22,6.35-3.86,2.62-2.78,4.47-5.81,4.12-6.73-1.21-3.14,4.32-6.21,13.77-7.64,10.81-1.63,29.65-10.08,35.69-16,7.62-7.48,11.45-12.97,11.45-16.3,0-1.85.68-6.05,1.5-9.31,1.22-4.86,1.11-6.69-.69-10.17-2.16-4.18-2.16-4.28,1.67-6.26,5.43-2.81,8.14-11.71,5.02-16.47-2.3-3.51-5.91-5.27-9.82-5.02h0Z"/>
</svg>