<?xml version="1.0" encoding="UTF-8"?>
<svg id="Capa_6" data-name="Capa 6" xmlns="http://www.w3.org/2000/svg" viewBox="0 0 132 129.09">
  <defs>
    <style>
      .cls-1 {
        fill: #010101;
        stroke-width: 0px;
      }
    </style>
  </defs>
  <path class="cls-1" d="M104.58,0c-2.82-.02-5.81.62-8.31,1.94-1.87.98-4.24,1.85-5.25,1.94s-2.14.62-2.5,1.16c-.36.54-1.39,1.25-2.31,1.59-1.43.53-1.56,1.17-.69,4.31.82,2.96.68,4.47-.69,7.5-1.06,2.34-1.47,4.8-1.06,6.41.8,3.19-4.25,14.38-7.34,16.28-1.29.79-2.06,2.31-2.06,4.06s-1.06,3.8-3,5.66c-1.65,1.58-3,3.47-3,4.19s-.82,1.31-1.84,1.31c-1.48,0-2.12,1.23-3.03,5.88-.63,3.22-.9,6.5-.59,7.31.33.87-1.06,3.28-3.44,5.88-3.89,4.25-4.02,4.58-4,11.41.03,11.92.13,11.65-5.22,14.41-1.45.75-3.93,3.08-5.5,5.19-1.76,2.35-5.19,4.97-8.88,6.78-9.26,4.55-10.84,5.02-18.94,5.75-6.32.57-7.56.98-7.56,2.47,0,.98-.28,2.53-.62,3.44-.54,1.4-.11,1.57,2.75,1.06,1.88-.33,7.59.26,12.88,1.34,12.4,2.53,12.49,2.51,14.41-.41.9-1.38,2.33-2.5,3.16-2.5s1.94-1.12,2.47-2.5c.53-1.38,2.01-2.94,3.31-3.44,1.3-.49,3.09-2.39,4-4.22,2.71-5.47,3.99-6.53,8.69-7.31,2.47-.41,6.69-1.86,9.38-3.22,3.39-1.71,7.23-2.66,12.5-3.03,5.17-.37,8.23-1.07,9.59-2.25,1.1-.95,3.58-2.27,5.47-2.91,3.89-1.3,10.03-7.49,10.03-10.09,0-.94.97-4.38,2.12-7.62s2.24-6.81,2.41-7.91c.17-1.1.77-3.26,1.38-4.81,1.25-3.23,1.45-7.68.34-7.69-.41,0-.81-2.56-.91-5.69-.12-4.07.27-6.03,1.34-6.81,2.26-1.66,5.24-11.33,5.28-17.09.02-2.8-.64-6.44-1.47-8.09-.82-1.65-1.77-5.79-2.12-9.19-.57-5.42-1.03-6.46-3.75-8.41-1.9-1.36-4.58-2.04-7.41-2.06h0Z"/>
</svg>