<?xml version="1.0" encoding="UTF-8"?>
<svg id="Capa_1" data-name="Capa 1" xmlns="http://www.w3.org/2000/svg" viewBox="0 0 132 107.7">
  <defs>
    <style>
      .cls-1 {
        fill: #010101;
        stroke-width: 0px;
      }
    </style>
  </defs>
  <path class="cls-1" d="M126.65,0c-1.57,0-3.41.49-5.44,1.5-2.27,1.13-4.56,1.44-7.91,1-2.59-.34-7.64-.6-11.22-.56-5.8.06-6.73.34-8.72,2.75-1.22,1.48-3.65,3.19-5.41,3.78-1.92.65-3.87,2.34-4.91,4.28-.95,1.77-3.3,4.69-5.22,6.5-1.92,1.81-4.25,4.75-5.16,6.5-.98,1.89-2.42,3.16-3.56,3.16-1.05,0-2.18.49-2.53,1.06-.35.57-1.56.76-2.66.41-1.34-.42-2.81.09-4.41,1.59-2.09,1.96-3.53,2.29-11.25,2.41-6.11.09-9.63.59-11.28,1.66-1.32.85-4.57,2.08-7.25,2.75-4.37,1.09-5.43.99-10.16-.97l-5.25-2.16-3.88,3.09c-2.13,1.71-5.35,3.43-7.12,3.78-3.9.78-4.54,4.33-1.06,5.91,1.2.54,3.11,2.63,4.25,4.66s3.03,4.78,4.19,6.09c1.83,2.09,3.47,6.06,3.81,9.22.26,2.38,5.88,11.77,10.53,17.56,2.77,3.46,5.03,7.11,5.03,8.12,0,1.02.9,2.62,2,3.56,1.1.94,2,2.27,2,2.97,0,.7.37,1.28.78,1.28s1.35,1.41,2.09,3.09c1.28,2.9,1.59,3.02,5.5,2.41,6.55-1.03,11.5-2.48,12.16-3.53.33-.54,2-.97,3.72-.97,3.85,0,9.6-3.73,10.38-6.72.32-1.22,1.34-2.46,2.25-2.78,3.04-1.08,11.63-12.68,11.81-15.94.36-6.58,1.43-10.64,3.75-14.06,1.33-1.96,2.74-4.9,3.09-6.53.36-1.65,1.3-2.97,2.12-2.97,1.17,0,1.4-1.29,1.19-6.25-.14-3.44-.03-6.86.22-7.62.65-1.95,4.5-6.12,5.66-6.12.53,0,2.27-1.57,3.88-3.5s3.27-3.5,3.69-3.5c1.28,0,6.72-5.24,6.72-6.47,0-1.67,5.92-5.78,7.47-5.19.72.28,2.28-.57,3.44-1.91s2.95-2.44,4-2.44c1.24,0,2.29-1.08,3-3.12,1.42-4.07,1.4-4.41-.47-6.28C129.52.5,128.22,0,126.65,0h0Z"/>
</svg>